<svg xmlns="http://www.w3.org/2000/svg" version="1.1" xmlns:xlink="http://www.w3.org/1999/xlink" xmlns:svgjs="http://svgjs.com/svgjs" width="2000" height="2000" preserveAspectRatio="none" viewBox="0 0 2000 2000"><g mask="url(&quot;#SvgjsMask4744&quot;)" fill="none"><rect width="2000" height="2000" x="0" y="0" fill="url(#SvgjsLinearGradient4745)"></rect><path d="M1589.968,1245.473C1725.711,1252.93,1870.885,1225.214,1946.371,1112.149C2029.415,987.762,2030.609,824.641,1958.35,693.694C1883.623,558.276,1744.478,459.295,1589.968,466.282C1444.615,472.855,1338.348,593.555,1275.102,724.592C1220.377,837.974,1230.364,968.651,1295.493,1076.394C1358.251,1180.214,1468.837,1238.819,1589.968,1245.473" fill="rgba(213, 212, 193, 0.2)" class="triangle-float3"></path><path d="M1720.307,1359.953C1906.08,1361.747,2062.669,1240.558,2159.997,1082.311C2263.054,914.749,2320.962,708.735,2227.188,535.807C2129.83,356.27,1924.527,268.989,1720.307,271.484C1520.604,273.924,1327.943,371.462,1234.431,547.935C1145.855,715.093,1197.948,911.624,1295.082,1073.959C1389.087,1231.064,1537.234,1358.185,1720.307,1359.953" fill="rgba(213, 212, 193, 0.2)" class="triangle-float1"></path><path d="M1645.863,422.12C1741.684,416.668,1815.791,346.049,1861.192,261.491C1903.851,182.039,1914.039,86.455,1867.592,9.156C1822.368,-66.108,1733.591,-93.163,1645.863,-96.865C1549.248,-100.942,1443.574,-90.975,1389.163,-11.034C1328.904,77.5,1328.853,196.543,1383.453,288.674C1437.074,379.155,1540.857,428.095,1645.863,422.12" fill="rgba(213, 212, 193, 0.2)" class="triangle-float1"></path><path d="M2095.122,2287.05C2268.745,2287.578,2401.917,2149.157,2484.718,1996.549C2563.157,1851.979,2579.946,1681.527,2502.345,1536.506C2420.17,1382.936,2268.984,1258.053,2095.122,1268.466C1932.932,1278.18,1840.674,1437.21,1764.45,1580.702C1694.541,1712.305,1646.43,1859.228,1709.612,1994.19C1782.946,2150.838,1922.159,2286.524,2095.122,2287.05" fill="rgba(213, 212, 193, 0.2)" class="triangle-float3"></path><path d="M1684.049,1049.509C1753.082,1047.897,1801.736,989.739,1835.612,929.568C1868.674,870.843,1890.524,800.671,1857.082,742.162C1823.45,683.32,1751.822,664.947,1684.049,664.395C1615.062,663.833,1541.691,680.225,1506.067,739.305C1469.519,799.917,1484.485,875.555,1519.708,936.946C1555.124,998.672,1612.903,1051.171,1684.049,1049.509" fill="rgba(213, 212, 193, 0.2)" class="triangle-float2"></path></g><defs><mask id="SvgjsMask4744"><rect width="2000" height="2000" fill="#ffffff"></rect></mask><linearGradient x1="50%" y1="100%" x2="50%" y2="0%" gradientUnits="userSpaceOnUse" id="SvgjsLinearGradient4745"><stop stop-color="rgba(238, 238, 238, 1)" offset="0"></stop><stop stop-color="rgba(237, 236, 228, 1)" offset="1"></stop></linearGradient><style>
            @keyframes float1 {
                0%{transform: translate(0, 0)}
                50%{transform: translate(-10px, 0)}
                100%{transform: translate(0, 0)}
            }

            .triangle-float1 {
                animation: float1 5s infinite;
            }

            @keyframes float2 {
                0%{transform: translate(0, 0)}
                50%{transform: translate(-5px, -5px)}
                100%{transform: translate(0, 0)}
            }

            .triangle-float2 {
                animation: float2 4s infinite;
            }

            @keyframes float3 {
                0%{transform: translate(0, 0)}
                50%{transform: translate(0, -10px)}
                100%{transform: translate(0, 0)}
            }

            .triangle-float3 {
                animation: float3 6s infinite;
            }
        </style></defs></svg>